<?xml version="1.0" encoding="UTF-8"?>
<svg id="Layer_2" data-name="Layer 2" xmlns="http://www.w3.org/2000/svg" viewBox="0 0 388.87 388.88">
  <defs>
    <style>
      .cls-1 {
        fill: #fff;
      }

      .cls-2 {
        fill: #002c4d;
      }

      .cls-3 {
        fill: #1362be;
      }
    </style>
  </defs>
  <g id="v4">
    <g>
      <circle class="cls-1" cx="194.44" cy="194.44" r="191.16"/>
      <g>
        <path class="cls-2" d="M170.1,138.15c1.65,1.74,2.69,4.12,2.58,6.56.65-.2,1.35-.3,1.95-.63.24-.87-.04-1.8-.17-2.69-1.02-4.54-4.34-8.29-8.27-10.62-3.3-2.04-7.16-3.04-11.01-3.32,2.24,1.8,4.34,3.8,6.12,6.08.18.3.54.33.85.41,2.95.59,5.82,2,7.95,4.21ZM233.95,152.08l1.69.61c.13-1.91.83-3.8,2.15-5.19,1.63-1.84,3.95-2.91,6.3-3.5,1.5-1.85,2.89-3.84,4.8-5.32-3.95.35-7.86,1.85-10.77,4.6-2.41,2.26-4.17,5.41-4.17,8.79ZM230.35,206.93c-2.08.77-4.22,1.3-6.43,1.58,1.55.16,3.1.18,4.65.04.41-.02.78-.26,1.17-.41,1.11-.39,2.37-.24,3.41-.8,0,.15,0,.46-.02.61,2.13.15,4.17.78,6.19,1.41,2.61.89,5.19,2,7.49,3.52.04-1.3.28-2.61.45-3.91-4.46-2.09-9.13-3.41-14.02-3.95-.65.98-1.78,1.5-2.89,1.91ZM247.57,209.06c.59.41,1.24.71,1.76,1.24l-.11-.45c-.54-.29-1.09-.55-1.65-.78ZM266.43,188.43c3,.74,5.82,2.17,8.03,4.34-.83-2.97-1.74-5.95-3.02-8.75-1.66-3.75-3.74-7.25-6.23-10.51-2.49-3.26-5.33-6.18-8.51-8.77.8-.52,1.64-.95,2.52-1.3.88-.35,1.79-.62,2.72-.79.93-.18,1.87-.26,2.82-.25.95,0,1.89.11,2.82.3-2.96-3.54-6.45-6.44-10.47-8.71,1.26-3.52,2.65-7.01,3.76-10.6.04-.35.33-.83-.11-1.02-1.56-1.03-3.22-1.87-4.97-2.52,1.3-2.61,2.8-5.15,4.04-7.79-4.33-1.54-8.78-2.24-13.37-2.13,1.91-2.26,4-4.32,5.97-6.49-3.58-.78-7.2-1.24-10.86-1.39-4.3-.07-8.57.27-12.81,1,.23-1.55.6-3.06,1.13-4.54-2.49.46-4.91,1.18-7.25,2.13-2.98-5.21-7.49-9.45-12.72-12.35-2-1.17-4.17-1.98-6.34-2.8.87.93,1.59,1.97,2.18,3.1.59,1.13,1.02,2.32,1.29,3.57-5.12-3.56-11.23-5.47-17.39-6.32-10.81-1.45-21.95.33-31.96,4.6-5.01,2.24-9.79,5.04-13.98,8.6,4.3-2.15,9.45-2.76,14.05-1.28-2.49.13-4.95.51-7.36,1.15-3.45.92-6.73,2.25-9.86,3.98s-5.99,3.81-8.6,6.25c1.57-.26,3.16-.35,4.75-.26,3.37.19,6.77,1.02,9.62,2.87-2.08.84-4.06,1.86-5.95,3.08-.65.43-1.3.89-1.76,1.54.43,1.02,1.37,1.74,1.95,2.69-4.51,1.52-8.66,4.08-12.22,7.25,4.8-1.13,10.14,0,13.98,3.13-3.43.93-6.67,2.3-9.73,4.1-4.82,2.8-9.16,6.62-12.12,11.42,3.97-1.11,8.42-.76,12.03,1.32-4.12,2.87-7.6,6.6-10.51,10.68-3.37,4.71-5.8,10.01-7.6,15.5.65-.61,1.24-1.28,1.91-1.84,1.37-1.2,2.86-2.21,4.48-3.04,1.62-.83,3.32-1.44,5.09-1.85-4.43,5.58-7.1,12.44-8.03,19.45-1.19,8.97.56,18.17,4.15,26.42,1.83,4.21,4.04,8.22,6.62,12.03-3.39-7.62-3.69-16.48-1.22-24.41.73,4.28,2.09,8.36,4.06,12.23.56,1.45.78,3.04,1.37,4.47.39-3.09,1.44-5.93,3.15-8.53-.13,5.9,1.15,11.79,3.3,17.24,3.28,8.23,8.66,15.42,14.61,21.89,1.48,1.56,2.95,3.15,4.58,4.56-5.34-7.45-8.06-16.89-6.73-26.03,3.82,8.29,9.49,15.61,15.72,22.23,5.19,5.51,10.81,10.64,16.65,15.48,2.19,1.83,4.49,3.52,6.88,5.08-.87-1-1.87-1.89-2.61-3-2.58-3.58-4.28-7.84-4.65-12.25,2.41,2.5,5.08,4.73,7.73,6.97,4.39,3.61,8.89,7.07,13.51,10.38-1.48-4.21-2.26-8.71-2.06-13.18,5.12-2.17,9.99-5.06,14.01-8.95.3-.26.56-.65.95-.76,1.8-.19,3.53-.62,5.21-1.3,1.67-.68,3.22-1.57,4.65-2.68-1.15,4.47-3.5,8.58-6.58,11.99-1.09,1.3-2.43,2.39-3.62,3.6,1.93-1.24,3.82-2.56,5.67-3.95,8.1-6.25,15.48-13.66,20.54-22.62.54-1.17,1.63-1.87,2.47-2.8,1.56-1.63,2.98-3.37,4.27-5.22s2.42-3.79,3.4-5.82c.98-2.03,1.8-4.12,2.45-6.28.65-2.16,1.13-4.35,1.44-6.59.66,2.61.99,5.26,1,7.96,0,2.69-.32,5.35-.98,7.96-.93,3.76-2.37,7.4-4.45,10.68,5.97-6.71,11.34-14.16,14.63-22.58,1.39-3.54,2.37-7.19,2.94-10.96s.72-7.54.44-11.34c-.47-6.54-2.12-12.77-4.93-18.69ZM252.26,136.65c-1.15,1.76-2.26,3.56-3.37,5.36,1.63.22,3.19,1.15,3.89,2.67.93,2,.61,4.3.19,6.4-.43,1.82-1.06,3.56-1.89,5.23,1.04.83,1.98,1.76,2.97,2.65-3.26-.41-6.47-1.02-9.68-1.69,1.78-1.15,3.3-2.8,3.91-4.86.61-2.06.76-3.97-.02-5.82-.18-.44-.54-.89-1.04-.72-2.41.35-4.62,1.52-6.52,3.02-.76.67-1.82,1.52-1.43,2.67.63,1.78,1.69,3.37,2.26,5.19-3.26-1.02-6.58-1.93-9.68-3.34-.15-3.45.98-6.9,3-9.71,2.02-2.8,4.77-4.76,7.88-5.99,1.52-.58,3.08-.95,4.7-1.13,1.61-.18,3.22-.16,4.83.07ZM195.54,114.63c3.43,1.91,6.64,4.25,9.29,7.19-1.69-3.52-4.04-6.78-7.17-9.14,2.65,1.24,5.28,2.61,7.51,4.52s4.43,4.47,5.8,7.32c.85-2.54.93-5.28.72-7.95,3.95,2.78,7.14,6.88,8.19,11.66,1.06-.91,2.26-1.65,3.39-2.45.13,1.95.17,3.93-.26,5.84,5.99-3.13,12.85-4.41,19.58-4.17-3.18,2.19-6.07,4.72-8.66,7.58,3.43-.8,6.97-1.13,10.46-.7-5.08.93-9.96,2.89-14.46,5.45-.04-1.8-.26-3.65.33-5.38.2-.72.5-1.4.91-2.02s.91-1.17,1.5-1.63c-4.93,1.02-9.34,3.93-12.57,7.73-.33-3.43-1.28-6.86-3.28-9.71.33,3.15-.67,6.3-2.39,8.9-1.37,2.04-2.99,3.86-4.86,5.45-.85-3.76-2.39-7.32-4.21-10.7-3.89-6.99-9.23-13.27-15.76-17.93-2.32-1.66-4.79-3.05-7.4-4.17,4.69.48,9.23,2.11,13.35,4.32ZM172.75,115.78c8.97,2.82,17.11,8.77,21.8,17,1,1.76,1.83,3.6,2.5,5.51-1.04-2-2.1-4.02-3.56-5.73-2.35-2.84-5.41-5.23-9.06-6.1.8,1.52,1.39,3.12,1.76,4.79.37,1.68.52,3.37.44,5.09-2.74-3.09-5.84-5.76-9.29-8.01-3.95-2.58-8.34-4.58-12.98-5.54.39-.15.85-.02,1.26-.02,1.71.05,3.41.21,5.1.48,3.39.56,6.6,1.89,9.51,3.67.77.49,1.5,1.04,2.19,1.65-.38-.95-.82-1.87-1.32-2.77-.5-.89-1.05-1.75-1.66-2.57-.61-.82-1.27-1.6-1.99-2.33s-1.47-1.42-2.27-2.05-1.64-1.21-2.52-1.74c-.88-.52-1.79-.99-2.73-1.39-.94-.4-1.9-.75-2.89-1.02-.98-.28-1.98-.49-2.99-.64,2.97.13,5.86.87,8.71,1.72ZM132.95,176.86c4.39-2.19,8.97-4.04,13.35-6.23,4.39-2.19,8.51-4.21,12.4-6.93-1.98,1.8-4.17,3.3-6.36,4.8s-5.06,3.3-7.86,4.43c1.76-.17,3.52-.09,5.25-.24,3.73-.24,7.56-.87,10.86-2.74-2.58,2.54-5.54,4.67-8.58,6.64-3.87,2.45-8.06,4.54-12.55,5.6,1.17-1.6,2.53-3.02,4.08-4.26-4.28-.74-8.64-.39-12.92.17.74-.5,1.54-.85,2.32-1.26ZM129.93,199.05c-2.67,3.63-4.28,7.92-5.28,12.29-.3-4.26.06-8.68,2.02-12.55.87-1.63,2.06-3.19,3.8-3.97,1.74-.78,3.08-.8,4.67-.87-2.01,1.42-3.75,3.12-5.21,5.1ZM132.56,217.87c-.43-7.71,1.48-15.46,5.02-22.28,2.14-4.16,4.78-7.96,7.92-11.42.3-.3.54-.76,1-.87,3.12-.61,6.26-.92,9.44-.93-5.61,4.78-10.49,10.22-14.61,16.33-3.97,5.92-6.89,12.32-8.77,19.19v-.02ZM153.1,219.02c-2.29,3.31-4.12,6.85-5.48,10.63-1.36,3.78-2.21,7.68-2.55,11.69-1.36-4.21-2.13-8.52-2.32-12.94-.12-3.87.2-7.7.97-11.49.77-3.79,1.96-7.44,3.57-10.96.5-.98.89-2.06,1.67-2.89,2.01-1.83,4.23-3.36,6.67-4.58-2.22,3.46-4.06,7.12-5.53,10.95s-2.55,7.79-3.22,11.84c-.26,1.61-.37,3.26-.5,4.89,1.91-2.69,4.16-5.07,6.73-7.14ZM161.52,223.43c-1.11,4.67-1.59,9.49-1.65,14.29-.06,3.61.28,7.17,1.02,10.7-2.11-3.5-3.71-7.32-4.45-11.33-1.41-7.73.09-16,4.3-22.65.37,1.45.76,2.91,1.15,4.39.39,1.48-.11,3.1-.37,4.6ZM159.18,159.25c-2.84,1.37-5.73,2.67-8.79,3.45-1.78.48-3.67.41-5.49.3.69-1,1.61-1.8,2.39-2.71-3.78-.39-7.6-.67-11.4-.24,5.86-1.69,11.96-2.41,18.04-2.46-.89.87-1.78,1.72-2.61,2.65.98-.37,2.02-.5,3.04-.74,3.37-.83,6.73-1.67,9.92-3.06-1.63,1.09-3.39,1.91-5.1,2.8ZM166.56,139.73c-1.36-1.12-2.83-2.06-4.42-2.81-1.59-.75-3.25-1.29-4.98-1.62-.98-.22-2.15-.24-2.87.56-2.97,3.02-2.87,8.62.44,11.36,1.52,1.37,3.45,2.15,5.38,2.73-1.75.56-3.55.79-5.38.67-.9-.08-1.76-.33-2.56-.76s-1.49-.99-2.06-1.7c-1.3-1.63-1.8-3.73-1.93-5.75-.09-2.65.5-5.38,2.06-7.58,1.56-2.19,3.17-3.19,5.25-3.97-2-2.02-4.27-3.68-6.79-4.99,3.19-.9,6.44-1.14,9.73-.72,4.82.7,9.49,2.82,12.96,6.25s6.12,8.88,5.93,14.2c-4.06,1.54-8.27,2.56-12.48,3.56.78-1.49,1.65-2.92,2.61-4.3.46-.78,1.09-1.54,1.15-2.47.07-.93-1.22-1.91-2.02-2.67ZM177.74,268.96c-2.39-2.24-4.8-4.52-6.45-7.36-2.3-3.63-3.19-8.01-2.76-12.27,1.39,2.84,3.26,5.41,5.34,7.75-.74-5.63.24-11.29,1.5-16.76.18,4.9.96,9.7,2.34,14.4,1.17,3.9,2.88,7.55,5.12,10.94-2.58-2.04-5.1-4.19-7.34-6.62,0,3.48.74,6.79,2.24,9.92ZM182.84,194.84c-2.67,4.32-4.54,9.36-4.08,14.5-2.8-1.72-5.45-3.78-7.34-6.47-3.3-4.47-4.47-10.14-4.47-15.61,2.28,4.15,5.12,8.01,8.62,11.2,2.41-5.73,6.69-10.44,11.38-14.42-1.95.83-3.94,1.56-5.97,2.19-1.33.39-2.67.83-4.06.83s-2.28-1.09-3.19-1.93c-2.39-2.37-4.25-5.34-5.06-8.64-.8-3.3-.28-6.34,1-9.21,2.24,1.82,4.56,3.52,6.93,5.19-1.29-1.98-2.41-4.06-3.35-6.23-.35-.85-.5-1.87.02-2.67.87-1.43,2.37-2.3,3.86-2.93,2.82-1.15,5.95-1.43,8.97-1.06-3.51-2.3-7.28-4.07-11.29-5.3,4.26-5.32,9.9-9.64,16.33-11.94.61-.18,1.28-.52,1.89-.18,6.01,2.54,11.7,6.01,16.44,10.55,2.26-3.32,5.17-6.3,8.64-8.34,3.56,1.58,6.71,3.95,9.58,6.54,2.87,2.58,4.86,4.99,6.97,7.77-1.98.87-3.76,2.11-5.41,3.47,3.08-.22,6.3.8,8.58,2.93.87.8,1.48,1.98,1.39,3.19-.13,1.58-.45,3.17-.26,4.78.37,3.54,1.52,7.08.83,10.66-.71,3.17-3.34,5.34-5.6,7.45-1.19-1.65-2.78-2.99-3.63-4.86-.35-.78-1.02-1.45-1.04-2.37-.2-1.87-1.56-3.43-3.21-4.21.22-.78.48-1.56.74-2.34,1.11.69,2.39,1.26,3.71,1.15,1.32-.11,2.45-.85,3.13-1.89,1.11-1.65,1.48-3.67,1.67-5.62.93.06,2.15-.02,2.56-1.02.15-.3-.33-.39-.48-.54-1.61-.89-3.28-1.84-5.17-1.93-1.89-.09-3.87.93-5.32,2.24-.35-2.19-1.17-4.26-2.02-6.27-.4-.99-.86-1.94-1.39-2.87.42,2.25.56,4.51.41,6.8-.11,1.45-.24,2.97-.8,4.34-.24.63-.8,1.17-1.5,1.15-2.08.09-4.12-.65-5.86-1.76-1.11-.74-2.15-1.76-2.47-3.08-.3-1.72.48-3.39,1.3-4.82,1.65-2.69,3.86-4.97,6.25-6.99.82-.67,1.69-1.26,2.61-1.78-1.93.42-3.77,1.08-5.53,1.97s-3.37,2.01-4.84,3.32c-.8.74-1.65,1.48-2.28,2.39-2.93-2.67-6.3-4.82-9.81-6.6s-6.64-2.93-10.23-3.52c4.26,1.87,8.34,4.21,11.88,7.25,2.37,2.06,4.58,4.34,6.16,7.08.5.91,1,2.15.3,3.11-.69.95-2.13,1.58-3.34,2.04-2.22.74-4.6,1.28-6.95.89-1.39-.3-1.84-1.8-2.24-2.99-1.26-4.17-2.45-8.45-4.8-12.16.65,2.05,1.02,4.15,1.11,6.3.06,1.74-.5,3.43-1.3,4.95-.65-.66-1.37-1.24-2.15-1.74-.78-.49-1.61-.89-2.49-1.19-.88-.3-1.78-.5-2.7-.59-.92-.09-1.84-.08-2.76.05-2.08.24-4.08.91-6.04,1.67-.26.37.22.67.48.89,1.02.63,2.26.74,3.45.78.39,2.34.85,4.86,2.52,6.69s3.65,2.11,5.69,1.85c1.45-.09,2.82-.61,4.13-1.17.59,1.22,1.19,2.39,1.84,3.56-1.41.61-2.91,1.5-3.47,2.99-.41,1.15.04,2.34.72,3.3-3.2,2.66-5.92,5.75-8.16,9.25ZM224.14,198.35c-.85.5-1.89.8-2.46,1.65-.69,1.5-.76,3.24-1.54,4.71-.39.72-1.13,1.3-2,1.09-.17-1.19.35-2.32.61-3.47s.59-2.5,1.24-3.58c.65-1.09,1.89-1.24,2.91-1.67,1.02-.43,2.15-.96,3.32-1.17,1.17-.22,1.72.74,1.35,1.54-.32.84-.84,1.53-1.57,2.06.15-.67.37-1.33.46-2.02-.89-.11-1.58.52-2.34.87h.02ZM225.94,193.49c-2.73.54-5.41,1.72-8.25,1.41-3.32-.43-6.43-1.93-9.77-2.37-1.56-.13-3.41-.13-4.54,1.15-1.56-1.63-3.28-3.17-4.58-5.02-.33-.48-.48-1.15-.15-1.67.54-.87,1.59-1.3,2.56-1.43,2.5-.33,5.02.3,7.34,1.19-2.61-2.5-5.91-4.15-9.38-5.06,2.5-.74,5.15-.13,7.53.74-2.37-2.19-5.1-4.28-8.38-4.69-.26-.06-.65-.02-.72-.35-.06-.33.28-.78.61-1.06,3.76-2.82,8.62-4.02,13.29-3.6,1.5,1.93,2.67,4.12,3.89,6.25-.35-2-.78-3.97-1.15-5.95,3.11.24,6.19,1.33,8.56,3.37.57.46,1.05,1.01,1.43,1.63-.61,1.57-1.45,3-2.08,4.54.56-.31,1.16-.49,1.8-.51.64-.03,1.26.09,1.84.36-.86,1.4-1.65,2.85-2.37,4.34.56-.43,1.17-.89,1.91-1,1.91-.37,3.86.83,4.75,2.5.43.8.67,1.8.33,2.69-.54,1.33-1.45,2.45-2.13,3.69-.52-.78-1.39-1.41-2.37-1.15h.02ZM198.69,233.09c.61.2,1.28.11,1.91.02,2.15-.39,4.3-.91,6.49-1.06,2.4-.17,4.79,0,7.14.5.78.15,1.63.33,2.39,0,1.26-.52,2.28-1.5,3.08-2.58-.52,1.5-1.22,3.02-2.45,4.06-.85.69-1.98.5-2.97.35-1.95-.4-3.92-.59-5.91-.56-2.5.02-4.95.59-7.38,1.13-1.24.26-2.67.39-3.71-.46-1.48-1.22-2.39-2.97-3.02-4.73,1.3,1.28,2.67,2.63,4.43,3.34ZM196,219.07c1.81.15,3.61.05,5.39-.33.13,2.06.22,4.1.39,6.17.04.82.2,1.74-.28,2.47-.67,1.1-1.29,2.23-1.85,3.39-1.08-1.14-1.81-2.47-2.17-4-.66-2.54-1.15-5.11-1.48-7.71ZM203.36,227.69c.67.39,1.65.89,1.56,1.78-.41.48-1.04.65-1.63.85-.09-.09-.17-.18-.24-.28-.07-.1-.13-.21-.18-.32-.05-.11-.08-.23-.1-.35-.02-.12-.03-.24-.03-.37,0-.12.02-.24.05-.36s.07-.24.12-.35c.05-.11.12-.22.19-.32.08-.1.16-.19.25-.27ZM204.97,229.64c.03-.15.09-.28.18-.4.08-.12.18-.23.3-.32s.25-.16.39-.2.29-.06.44-.05c.39.91-.72.83-1.3.98ZM206.6,229.31c.02-.17.04-.5.04-.67.41-.04,1.11-.45,1.11.26s-.76.28-1.15.41ZM208.98,228.25c-.01.12.02.24.09.34.07.1.16.17.28.21.15-.37.41-.76.87-.54l.15.78.39-.72.63.09c.22.22.15.59.22.87-1.19-.35-2.45-.24-3.67-.22-.06-.65.54-.71,1.04-.8ZM211.72,229.05c.06-.5.78-.85,1.08-.37l-.15.78h-.63l-.3-.41ZM212.85,228.75c.39-.65,1.04-1.15,1.85-1.13.02.43-.05.84-.21,1.24-.16.4-.38.75-.68,1.06l-.74-.22-.22-.96ZM217.45,229.27c-.3.37-.62.71-.98,1.02-.06-1.09-.46-2.1-.72-3.17-.26-1.06.28-1.43.54-2.1,1.35-2.87,2.34-5.95,2.58-9.12,1.11,1.09,2.22,2.19,3.35,3.26-.82,3.73-2.41,7.1-4.76,10.12h-.02ZM216.32,204.72c-.02.43-.26,1.04-.8.93-.54-.11-1.52-.91-1.63-1.78-.22-1.35-.19-2.72-.45-4.06-.11-.72-.83-1.04-1.39-1.37-1.03-.54-2.09-1-3.19-1.39-.43-.13-1.02-.33-1.37.11-.35.43-.09,1.28-.09,1.91-.78-.63-1.48-1.56-1.52-2.61s1.41-1.22,2.26-1.13c1.76.24,3.43.87,5.08,1.41.8.3,1.72.54,2.26,1.28.54.74.61,1.85.72,2.78.13,1.3.18,2.6.15,3.91h-.02ZM231.96,171.17l1.24-.15c.3,1.56.17,3.36-.93,4.6-1.11,1.24-2.63,1.28-3.84.56-.83-.43-1.41-1.19-1.98-1.93l1.17-1c.35.59.74,1.22,1.37,1.54.23.11.48.18.74.2.26.02.51,0,.76-.08.25-.07.48-.19.68-.34s.38-.34.52-.56c.61-.85.43-1.91.3-2.84h-.02ZM184.78,171.63c.14.25.32.48.53.69.21.2.45.37.71.5s.53.23.82.28.58.06.87.03c1.17-.15,2.19-.85,3-1.67l1.37,1.15c-1.15,1.06-2.52,2.06-4.15,2.22-.38.06-.77.08-1.16.05s-.76-.11-1.13-.24c-.37-.13-.71-.3-1.03-.52-.32-.22-.61-.47-.87-.76-1.17-1.32-1.3-3.3-.8-4.93.59.07,1.17.15,1.74.28-.3.95-.41,2.06.13,2.93h-.02ZM189.03,170.26c.69-.2,1.19.65.89,1.24-.37.15-.75.16-1.13.02-.15-.43-.28-1.04.26-1.26h-.02ZM194.65,211.23c-1.09-.02-1.84-.85-2.56-1.54-1.41-1.48-2.65-3.19-3.23-5.17,1.78,2.02,4.52,2.69,7.08,3,3.08.31,6.15.28,9.23-.09-3.69-.56-7.47-1.09-10.96-2.5-3.5-1.41-6.14-4.36-6.4-8.06.69.92,1.53,1.66,2.54,2.22,3.8,2.04,7.99,3.17,12.09,4.36,2.1.59,4.26,1.09,6.36,1.65-4.36-2.04-8.86-3.95-12.83-6.73-1.35-.93-2.63-2.19-2.89-3.89-.26-1.69.48-3.39,1.41-4.8,1.56,2.08,3.56,3.82,5.49,5.56,3.32,2.99,6.84,5.73,10.2,8.64,1.19,1.04,2.45,2.06,3.43,3.32s.63,3.15.61,4.71c-3.61,1.09-6.99,2.71-10.51,4.02-2.71,1-5.73,1.69-8.58.87-.83-.21-1.63-.52-2.39-.91-.76-.39-1.47-.86-2.13-1.42-.66-.55-1.25-1.17-1.77-1.85s-.95-1.42-1.31-2.2c2.15,1.84,4.91,3.04,7.77,2.99,3.78-.13,7.38-1.45,10.81-2.97-3.78.44-7.6,1.11-11.42.78h-.04ZM202.38,264.55c-.88.75-1.63,1.6-2.25,2.57s-1.09,2.01-1.4,3.12c-1,3.54-.46,7.36.89,10.73-4.67-5.8-6.56-13.57-5.56-20.89.24-2.24.83-4.41,1.39-6.58-.22,1.82-.52,3.65-.56,5.51-.12,3.91.41,7.73,1.58,11.46.09-2.15.5-4.47,2.08-6.06,1-1.09,2.43-1.56,3.84-1.85,2.02-.37,3.93-1.06,5.71-2.08-1.67,1.65-3.95,2.5-5.69,4.08l-.04-.02ZM212.76,264.08c-2.26,2.74-5.23,4.78-8.38,6.36,3.06-3.11,5.51-6.88,6.69-11.12.23.85.33,1.71.28,2.58,1.95-2.95,4.04-5.82,6.56-8.32-.96,3.8-2.52,7.51-5.1,10.51l-.04-.02ZM215.59,244.71c.45-1.47.72-2.96.8-4.5-1.67,3.06-3.39,6.17-5.78,8.75.77-2.25,1.3-4.56,1.59-6.93-1.77,4.02-4.07,7.71-6.88,11.07-.83-3.8-2.02-7.56-4.02-10.9.13,1.83.2,3.65.48,5.45-1.67-1.3-3.34-2.63-4.8-4.17-.8-.8-1.5-1.69-2.3-2.5.37,1.5.71,3.04,1.48,4.39-1.65-1.13-3.23-2.45-4.32-4.17-.89-1.32-1.33-2.87-1.67-4.39-1.19-5.02-1.91-10.14-2.39-15.26,1.63,4.17,3.58,8.23,6.19,11.88.91,1.17,1.82,2.52,3.3,3.02,1.48.5,2.63.06,3.91-.22,2.07-.56,4.18-.93,6.32-1.11,2.48-.13,4.95.28,7.36.8.93.22,1.95.24,2.8-.22,1.19-.63,1.82-1.87,2.43-3.02,1.1-2.24,1.95-4.57,2.56-6.99.02.53,0,1.06-.07,1.58-.3,2.61-.54,5.21-.98,7.79-.3,1.76-.63,3.58-1.63,5.1-1,1.52-2.65,3.32-4.39,4.52ZM225.01,258.52c-1.09,1.08-2.28,2.03-3.58,2.84,4.43-4.62,6.19-11.12,6.67-17.35.24,1.72.67,3.41.59,5.15.72-1.39,1.54-2.71,2.15-4.17.7-1.6,1.27-3.24,1.72-4.93-.3,6.73-2.67,13.61-7.53,18.43v.02ZM239.9,244.49c-.87,4.56-2.89,8.97-6.06,12.4,2.43-4.69,3.35-10.01,3.69-15.22.18-1.78.04-3.63.67-5.34s1.04-3.02,1.61-4.52c.74,4.17.96,8.49.09,12.68ZM251.91,227.51c-.71,3.33-1.95,6.44-3.73,9.33,1.74-5.45,1.91-11.35.76-16.94-.44-2.15-1.17-4.21-1.61-6.36.76.52,1.55,1,2.37,1.43-3.65-2.56-7.84-4.28-12.16-5.39-1.5-.3-2.99-.76-4.56-.78-.21.77-.56,1.47-1.06,2.08,4.59,2.3,8.58,5.37,11.99,9.21-3.78-3.45-7.95-6.58-12.68-8.58-.31.36-.7.59-1.17.67-2.39.41-4.84-.04-7.1-.83,1.65,1.15,3.39,2.32,5.36,2.82.35.08.71.1,1.07.04s.7-.18,1.01-.37c-.12.71-.38,1.36-.79,1.95-.4.59-.92,1.07-1.54,1.44-1.15.74-2.65,1.17-3.95.59-1.3-.59-1.93-1.85-2.93-2.74-1.24-1.19-2.62-2.21-4.13-3.04.37-1.3.56-2.69,1.35-3.82s2.04-1.43,3-2.24c2.72-2.2,5.2-4.64,7.45-7.32,1.5-1.82,2.87-3.82,3.69-6.06.63,1.26,1.09,2.65.98,4.06s-.83,2.63-1.8,3.58c-2.63,2.58-5.88,4.34-9.03,6.19,2.52-.93,5.08-1.8,7.56-2.93,1.52-.71,3.08-1.52,4.15-2.87.05,1.19-.16,2.33-.61,3.43,4.56.66,8.91,2.02,13.03,4.08,1.67.72,3.17,1.8,4.67,2.84-.67-.26-1.3-.6-1.89-1.02l-.22.35c.61.87.91,1.89,1.3,2.87,1.78,4.52,2.13,9.55,1.24,14.29ZM263.52,224.93c-.11-2.67-.65-5.3-1.28-7.88-2.04-8.29-6.21-16.02-11.85-22.43-.37-.44-.8-.83-.87-1.43-.53-2.52-1.5-4.85-2.93-6.99,3.41.78,6.34,2.95,8.53,5.62,3.45,4.02,5.43,9.01,7.03,13.98-1-7.3-3.8-14.27-7.69-20.5-2.76-4.44-6.17-8.31-10.23-11.61,3.32-.52,6.75-.2,10.01.59-3.04-2.56-6.36-4.89-10.07-6.36,7.49,1.74,14.35,6.08,19.04,12.18-1.77-1.05-3.63-1.88-5.6-2.49-1.96-.61-3.97-.99-6.02-1.14,2.95,3.05,5.49,6.41,7.63,10.08s3.8,7.54,4.99,11.61c2.69,8.68,2.5,18.26-.7,26.77Z"/>
        <path class="cls-2" d="M194.44,388.88C87.22,388.88,0,301.65,0,194.44S87.22,0,194.44,0s194.44,87.22,194.44,194.44-87.22,194.44-194.44,194.44ZM194.44,5C89.98,5,5,89.98,5,194.44s84.98,189.44,189.44,189.44,189.44-84.98,189.44-189.44S298.89,5,194.44,5Z"/>
        <path class="cls-2" d="M194.44,306.62c-61.86,0-112.18-50.32-112.18-112.18s50.32-112.18,112.18-112.18,112.18,50.32,112.18,112.18-50.32,112.18-112.18,112.18ZM194.44,87.26c-59.1,0-107.18,48.08-107.18,107.18s48.08,107.18,107.18,107.18,107.18-48.08,107.18-107.18-48.08-107.18-107.18-107.18Z"/>
        <g>
          <path class="cls-2" d="M85.24,295.93l5.88,6.16-2.13,2.03-5.88-6.16-5.68,5.43-2.58-2.7,13.48-12.87,9.11,9.54-2.11,2.01-6.53-6.84-3.55,3.39Z"/>
          <path class="cls-2" d="M108.76,318.59c-3.61,4.58-8.73,5.46-13.23,1.92-4.52-3.56-4.85-8.73-1.24-13.31,3.62-4.6,8.71-5.48,13.23-1.92,4.5,3.54,4.87,8.71,1.24,13.31ZM105.68,316.17c2.7-3.44,2.7-6.67.11-8.7-2.61-2.06-5.75-1.3-8.45,2.14-2.69,3.42-2.7,6.67-.09,8.72,2.59,2.04,5.75,1.26,8.43-2.16Z"/>
          <path class="cls-2" d="M129.61,330.64c-2.83,5.1-7.76,6.78-12.77,4-5.03-2.79-6.18-7.85-3.34-12.95,2.85-5.12,7.73-6.79,12.77-4,5.01,2.78,6.19,7.83,3.34,12.95ZM126.19,328.74c2.13-3.82,1.61-7.01-1.27-8.62-2.91-1.61-5.89-.37-8.01,3.46-2.11,3.8-1.61,7.01,1.29,8.63,2.88,1.6,5.88.33,7.99-3.47Z"/>
          <path class="cls-2" d="M145.37,330l-5.58,14.69-3.49-1.32,5.58-14.69-5.91-2.24,1.04-2.73,15.31,5.81-1.04,2.73-5.91-2.24Z"/>
          <path class="cls-2" d="M167.71,346.59c-.77,3.37-3.69,4.39-6.19,4.18-.95-.1-1.53-.24-2.55-.47l-6.61-1.51,4.15-18.16,6.51,1.49c.92.21,1.45.33,2.32.64,2.87,1.04,4.11,3.12,3.55,5.57-.43,1.87-1.71,2.88-3.67,3.09,2.21,1.14,3.04,2.83,2.5,5.17ZM163.89,345.75c.38-1.68-.48-2.63-1.77-3.06-.44-.15-.85-.28-1.27-.37l-3.03-.69-1.17,5.13,3.16.72c.42.1.87.2,1.22.25,1.29.18,2.51-.45,2.86-1.98ZM158.44,338.91l2.74.62c.45.1.88.17,1.31.22,1.37.09,2.19-.5,2.49-1.81.31-1.37-.38-2.22-1.56-2.65-.41-.15-.88-.28-1.3-.38l-2.63-.6-1.05,4.61Z"/>
          <path class="cls-2" d="M178.43,347.85l-2.33,5.44-3.96-.33,8.26-18,4.66.39,5.01,19.12-4.04-.34-1.36-5.75-6.24-.53ZM179.62,344.99l4.36.37-1.58-7.04-2.78,6.67Z"/>
          <path class="cls-2" d="M210.41,353.65l-13.43.68-.95-18.6,3.72-.19.79,15.5,9.71-.5.16,3.1Z"/>
          <path class="cls-2" d="M230.71,350.31l-13.24,2.4-3.32-18.33,3.67-.67,2.76,15.28,9.57-1.74.55,3.06Z"/>
          <path class="cls-2" d="M257.3,327.92l.12.24-3.46,1.39-.15-.23c-1.28-1.96-3.08-2.69-5.39-1.77-2.79,1.12-3.71,4.25-2.14,8.19,1.72,4.31,4.59,5.73,7.22,4.67,2.26-.9,3.02-2.78,2.61-5.12l-.05-.27,3.44-1.38.08.26c1.1,3.84-.75,7.37-5.19,9.14-4.82,1.93-9.48-.13-11.69-5.65-2.27-5.67-.05-10.54,4.74-12.45,4.69-1.88,8.15-.29,9.86,2.97Z"/>
          <path class="cls-2" d="M280.77,329.2l-11.66,6.71-9.29-16.15,3.23-1.86,7.74,13.46,8.43-4.85,1.55,2.69Z"/>
          <path class="cls-2" d="M293.96,309.97c.48.62.81,1.05,1.29,1.76,1.71,2.6,1.63,6.04-2.5,9.23-4.15,3.21-7.49,2.41-9.58.1-.57-.65-.9-1.08-1.38-1.7l-6.75-8.74,2.93-2.26,6.98,9.04c.33.43.58.75.87,1.04,1.43,1.59,3.27,1.84,5.23.32,1.95-1.5,2.16-3.34.99-5.13-.21-.35-.45-.67-.78-1.1l-6.98-9.04,2.93-2.26,6.75,8.74Z"/>
          <path class="cls-2" d="M311.07,295.79c2.49,2.4,1.85,5.43.38,7.46-.58.76-.99,1.18-1.72,1.94l-4.71,4.88-13.4-12.94,4.64-4.8c.66-.68,1.03-1.07,1.75-1.66,2.37-1.91,4.8-1.9,6.61-.16,1.38,1.33,1.58,2.95.75,4.74,2.12-1.3,3.99-1.14,5.72.53ZM299.7,299.76l1.95-2.02c.32-.33.6-.66.86-1.01.78-1.12.71-2.13-.26-3.07-1.01-.98-2.1-.82-3.08-.04-.34.27-.7.6-1,.92l-1.88,1.94,3.4,3.28ZM308.37,298.62c-1.24-1.2-2.5-.95-3.54-.07-.36.29-.68.58-.98.9l-2.16,2.24,3.79,3.66,2.25-2.33c.3-.31.62-.64.84-.91.82-1.01.91-2.38-.21-3.47Z"/>
        </g>
        <g>
          <path class="cls-3" d="M90.64,72.51c-.55.37-1.1.8-1.86,1.47l-3.11,2.72,5.42,6.17,2.92-2.56c.74-.65,1.26-1.11,1.69-1.54,1.56-1.64,2.18-3.65.38-5.71-1.81-2.06-3.59-1.8-5.44-.56Z"/>
          <path class="cls-3" d="M299.54,73.64c-.45-.49-.98-.99-1.48-1.42l-3.12-2.64-4.62,5.45,3.24,2.75c.53.45,1.06.84,1.61,1.2,1.77,1.07,3.29.86,4.61-.7,1.37-1.62,1.04-3.25-.24-4.65Z"/>
          <path class="cls-3" d="M291.18,81.28l-3.59-3.04-5.15,6.08,3.74,3.17c.5.42,1.03.87,1.46,1.18,1.6,1.14,3.69,1.15,5.22-.66,1.69-1.99,1.19-3.87-.24-5.34-.48-.51-.95-.97-1.45-1.39Z"/>
          <polygon class="cls-3" points="74.29 105.5 63.89 102.17 70.48 110.91 74.29 105.5"/>
          <path class="cls-3" d="M52.75,128.99c-2.45-1.02-4.16-.21-5.17,1.49-.31.54-.68,1.31-1.07,2.26l-1.55,3.74,8.01,3.31,1.55-3.74c.39-.95.68-1.75.84-2.35.49-1.92-.15-3.69-2.61-4.71Z"/>
          <path class="cls-3" d="M51.08,188.82c-2.12,0-3.07,2-3.07,6.4s.95,6.4,3.07,6.4,3.05-2.05,3.05-6.4-.95-6.4-3.05-6.4Z"/>
          <path class="cls-3" d="M353.27,194.82c-1.55,0-2.88,1.2-2.88,3.4,0,1.97,1.12,3.4,2.9,3.4s2.92-1.45,2.92-3.3c0-2.02-.98-3.5-2.95-3.5Z"/>
          <path class="cls-3" d="M194.44,10.04C92.76,10.04,10.04,92.76,10.04,194.44c0,34.05,9.29,65.97,25.45,93.38l57.75-33.93c-10.29-17.45-16.2-37.77-16.2-59.45,0-64.73,52.66-117.39,117.39-117.39s117.39,52.66,117.39,117.39c0,21.68-5.91,42-16.2,59.45l57.75,33.93c16.16-27.41,25.45-59.33,25.45-93.38,0-101.67-82.72-184.39-184.39-184.39ZM41.68,201.12v2.72h-12.57v-1.62l5.8-5.67c2.32-2.27,3.25-3.5,3.25-5.15,0-1.53-.88-2.6-2.47-2.6-1.72,0-2.55,1.07-2.77,3.15l-.03.25h-3.42l.02-.25c.35-3.7,2.65-5.72,6.52-5.72s5.8,2.02,5.8,4.97c0,2.17-1.07,3.72-4.22,6.8l-3.2,3.12h7.3ZM51.08,204.19c-4.9,0-6.72-3.57-6.72-8.97s1.82-8.97,6.72-8.97,6.7,3.52,6.7,8.97-1.82,8.97-6.7,8.97ZM64.75,150.76l-26.06-10.78,3.74-9.03c.63-1.51,1.07-2.48,1.75-3.7,2.1-3.78,6.04-5.73,10.84-3.75s6.13,6.34,5.02,10.31c-.38,1.35-.75,2.35-1.38,3.86l-1.58,3.82,9.82,4.06-2.16,5.21ZM87.31,109.52l-8.55-2.62-5.47,7.75,5.32,7.2-3.46,4.91-17.18-24.57,4.08-5.78,28.8,8.09-3.53,5.01ZM109.38,87.54c-1.79-.99-3.23-2.01-5.2-3.81-2.27-2.03-4.34-2.66-6.17-1.27-.61.48-1.13.94-1.69,1.42l-2.46,2.16,7.49,8.54-4.24,3.72-18.59-21.19,7.75-6.79c1.23-1.08,2.06-1.75,3.21-2.54,3.4-2.33,7.29-2.91,10.5.74,2.4,2.73,2.28,5.88.38,8.8,2.79-1.04,5.13.01,7.45,2.16,2.54,2.34,4.31,3.55,6.23,4l-4.64,4.07ZM137.07,70.47l-12.99-6.09-.9,3.32,4.1,7.86-5.01,2.61-13.02-25,5.01-2.61,6.29,12.07,4.52-17.7,5.95-3.1-4.83,17.72,17.35,7.55-6.46,3.36ZM180.13,58.73l-5.6.72-3.05-23.59-9.49,1.22-.57-4.38,24.58-3.17.57,4.38-9.49,1.22,3.05,23.59ZM222.66,60.35l-5.57-.63,1.3-11.49-13.12-1.49-1.3,11.49-5.61-.64,3.18-28.02,5.61.64-1.37,12.06,13.12,1.49,1.37-12.06,5.57.63-3.18,28.02ZM260.89,48.2l-13.4-5.01-2.61,6.97,12.45,4.65-1.56,4.17-12.45-4.65-2.61,6.97,13.79,5.15-1.56,4.17-19.07-7.13,9.88-26.42,18.69,6.98-1.55,4.13ZM297.42,91.82c-3.38,3.99-8.02,3.32-11.23,1.3-1.2-.8-1.88-1.38-3.1-2.41l-7.83-6.64,18.24-21.5,7.7,6.53c1.09.93,1.72,1.45,2.67,2.48,3.12,3.4,3.34,7.06.88,9.96-1.88,2.21-4.3,2.67-7.09,1.6,2.17,3.07,2.11,5.92-.24,8.69ZM304.99,115.37c-4.65-6.43-3.3-11.45.29-14.5,1.01-.83,1.67-1.31,2.63-2.01l13.54-9.8,3.29,4.54-14,10.14c-.66.48-1.16.84-1.61,1.26-2.47,2.09-2.94,4.86-.73,7.91,2.18,3.01,4.96,3.43,7.71,1.74.54-.29,1.04-.65,1.7-1.13l14-10.14,3.29,4.54-13.54,9.8c-.96.7-1.62,1.17-2.73,1.88-4.02,2.46-9.22,2.18-13.85-4.21ZM341.4,203.84h-3.45v-13.62l-5.02,2.77v-3.25l4-2.37c.92-.53,1.83-.78,2.77-.78h1.7v17.25ZM343.35,145.22l-2.2-5.33c2.52-1.39,3.58-3.55,2.46-6.27-.86-2.08-2.49-3.26-4.61-2.39-2.19.9-2.71,2.75-1.98,7.32,1.04,6.29-.54,9.95-4.74,11.68-4.91,2.02-9.56-1.33-11.68-6.47-2.57-6.24-1.49-11.46,3.79-14.2l2.19,5.33c-2.64,1.75-3.21,4.55-2.12,7.2.98,2.38,3.04,3.74,5.05,2.92,2.19-.9,2.92-2.79,2.24-7.02-.91-5.86-.44-9.99,4.36-11.96,4.8-1.97,9.42,1.21,11.48,6.2,2.57,6.24.18,10.54-4.23,13.02ZM353.32,204.19c-4.32,0-6.62-2.57-6.62-8.42,0-6.4,3.05-9.52,7.12-9.52,3.42,0,5.5,1.88,5.85,4.85l.02.25h-3.5l-.05-.25c-.38-1.55-1.17-2.27-2.55-2.27-1.97,0-3.2,1.75-3.35,6l.87-1.58c.92-.75,1.85-1,3.07-1,3.77,0,5.67,2.47,5.67,5.65,0,4-3,6.3-6.55,6.3Z"/>
        </g>
      </g>
    </g>
  </g>
</svg>